<?xml version="1.0" encoding="UTF-8"?>
<svg id="Layer_1" data-name="Layer 1" xmlns="http://www.w3.org/2000/svg" viewBox="0 0 100.42 50">
  <defs>
    <style>
      .cls-1 {
        fill: #ce5428;
      }

      .cls-2 {
        fill: #23575f;
      }

      .cls-3 {
        fill: #0d1a1a;
      }
    </style>
  </defs>
  <path class="cls-3" d="M27.8,28.15c-.34,1.05-.9,2.02-1.37,3.02-.14,.29-.25,.51-.69,.33-2.6-1.04-4.92-.07-7.03,1.28-1.29,.83-2,.67-2.95-.4-1.2-1.36-2.56-2.59-3.91-3.83-1.09-1.01-2.32-.94-3.28,.08-.8,.85-.71,2.05,.3,3.05,1.29,1.29,2.56,2.61,3.95,3.78,.97,.82,1.1,1.35,.19,2.37-1.46,1.63-2.48,3.58-2.93,5.75-.42,2.03-.23,3.9,1.68,5.21,.31,.21,.56,.52,1.05,.99-4.25,0-8.23,0-12.2,0-.51,0-.58-.24-.58-.64,.01-5.12-.17-10.24,.1-15.35,.15-2.85,1.89-5.21,3.79-7.33,2.2-2.45,4.69-4.46,7.93-5.38,.44-.12,.85-.24,1.3-.18,.79-.4,1.58,.11,2.38,0-.1-.17-.19-.33-.28-.5-.09-.06-.17-.12-.26-.18-2.51-2.6-5.28-2.15-8.14-.69-2.65,1.35-4.77,3.31-6.81,5.82,0-3.05,.01-5.84,0-8.62,0-.56,.25-.66,.73-.65,4.76,.06,9.52-.05,14.27,.25,.18,0,.36,0,.53,0,2.75-.27,5.4,.01,7.89,1.33,3.98,2.1,5.72,6.19,4.35,10.46"/>
  <path class="cls-3" d="M28.64,40.13c-1.21-1.64-2.7-1.65-4.24-.98-2.86,1.24-4.89,3.35-6,6.26-.67,1.75-.45,2.47,1,4.05-1.97,.47-3.9,.29-5.81,.33-.55,.01-.58-.43-.7-.81-.36-1.06-.3-2.15,.04-3.15,2.04-6.12,6-10.38,12.31-12.16,2.16-.61,2.86-.11,3.61,1.97,2.43,6.67-1.35,12.85-8.39,13.77-.53,.07-.58-.07-.66-.48-.11-.59-.04-1.16,.09-1.71,.65-2.78,4.49-7.28,8.75-7.09"/>
  <path class="cls-2" d="M14.68,10.22c0,1.14-.42,2.12-1.27,2.95-.85,.81-1.84,1.22-2.98,1.22H.3V0H10.43C11.58,0,12.57,.41,13.41,1.23c.85,.83,1.27,1.81,1.27,2.95,0,1.31-.51,2.31-1.55,3.02,1.03,.7,1.55,1.71,1.55,3.02m-3.99-5.45c0-.2-.08-.38-.23-.54-.16-.16-.34-.23-.54-.23H4.27v1.56h5.64c.1,0,.2-.02,.29-.07,.09-.04,.17-.1,.24-.17s.13-.15,.17-.25c.04-.1,.07-.19,.07-.29m0,4.86c0-.1-.02-.2-.07-.29-.04-.09-.1-.18-.17-.25s-.15-.13-.24-.17c-.09-.04-.19-.07-.29-.07H4.27v1.57h5.64c.1,0,.2-.02,.29-.07,.09-.04,.17-.1,.24-.17,.07-.07,.13-.15,.17-.25,.04-.1,.07-.19,.07-.3"/>
  <path class="cls-2" d="M29.5,9.8c0,1.26-.45,2.34-1.35,3.24-.91,.89-1.99,1.34-3.24,1.34h-5.2c-1.26,0-2.34-.45-3.24-1.34-.89-.9-1.34-1.98-1.34-3.24V0h3.97V9.45c0,.13,.03,.25,.08,.37,.05,.12,.12,.22,.21,.3,.09,.09,.19,.16,.3,.21,.12,.05,.24,.08,.37,.08h4.51c.25,0,.47-.1,.66-.28,.19-.19,.28-.41,.28-.67V0h3.99V9.8Z"/>
  <rect class="cls-2" x="30.62" y="0" width="4" height="14.38"/>
  <polygon class="cls-2" points="35.71 14.38 35.71 0 39.69 0 39.69 10.41 47.5 10.41 47.5 14.38 35.71 14.38"/>
  <path class="cls-2" d="M62.32,9.8c0,1.26-.45,2.34-1.35,3.24-.91,.89-1.99,1.34-3.24,1.34h-9.79V0h9.79C58.98,0,60.06,.45,60.96,1.35c.9,.9,1.35,1.98,1.35,3.24v5.2Zm-3.99-4.86c0-.12-.03-.24-.08-.36-.05-.12-.12-.22-.21-.31-.09-.09-.19-.16-.31-.21-.12-.05-.23-.08-.36-.08h-5.47v6.41h5.47c.25,0,.47-.1,.66-.28s.28-.41,.28-.67V4.94Z"/>
  <path class="cls-3" d="M64.42,39.06c0,2.98-1.07,5.54-3.2,7.67-2.15,2.12-4.71,3.17-7.67,3.17h-12.31c-2.98,0-5.54-1.06-7.67-3.17-2.12-2.13-3.17-4.69-3.17-7.67v-12.31c0-2.97,1.06-5.52,3.17-7.67,2.13-2.13,4.69-3.2,7.67-3.2h12.31c2.98,0,5.54,1.07,7.67,3.2,2.13,2.13,3.2,4.69,3.2,7.67v12.31Zm-9.45-11.49c0-.63-.22-1.15-.65-1.59-.43-.43-.96-.65-1.59-.65h-10.68c-.63,0-1.16,.22-1.6,.65-.44,.43-.66,.96-.66,1.59v10.68c0,.32,.06,.62,.18,.89,.12,.27,.28,.51,.48,.71,.2,.2,.44,.36,.71,.48,.27,.12,.57,.18,.89,.18h10.68c.63,0,1.15-.22,1.59-.66,.43-.44,.65-.97,.65-1.6v-10.68Z"/>
  <path class="cls-3" d="M100.42,40.04c0,2.69-1,5.02-3.01,6.97-2,1.92-4.35,2.89-7.05,2.89h-23.98V15.88h23.98c2.71,0,5.06,.97,7.05,2.91,2,1.96,3.01,4.28,3.01,6.97,0,3.09-1.22,5.47-3.66,7.14,2.44,1.67,3.66,4.05,3.66,7.14m-9.45-12.89c0-.48-.18-.91-.55-1.27-.37-.37-.79-.55-1.27-.55h-13.35v3.68h13.35c.24,0,.47-.05,.69-.16,.22-.1,.41-.24,.58-.41,.17-.17,.3-.36,.41-.59,.1-.22,.16-.46,.16-.7m0,11.49c0-.24-.05-.47-.16-.7-.1-.22-.24-.42-.41-.59-.17-.17-.36-.3-.58-.41s-.44-.16-.69-.16h-13.35v3.7h13.35c.24,0,.47-.05,.69-.16,.22-.1,.41-.24,.58-.41,.17-.17,.3-.36,.41-.59,.1-.22,.16-.46,.16-.7"/>
  <polygon class="cls-1" points="67.05 11.81 65.61 6.36 66.73 6.36 67.78 10.4 68.91 6.36 69.84 6.36 70.98 10.39 72.02 6.36 73.05 6.36 71.62 11.81 70.4 11.81 69.37 8.19 68.34 11.81 67.05 11.81"/>
  <rect class="cls-1" x="73.92" y="6.36" width="1.07" height="5.44"/>
  <polygon class="cls-1" points="79.76 6.36 79.76 7.39 78.29 7.39 78.29 11.81 77.22 11.81 77.22 7.39 75.76 7.39 75.76 6.36 79.76 6.36"/>
  <polygon class="cls-1" points="83.61 6.36 84.68 6.36 84.68 11.81 83.61 11.81 83.61 9.55 81.59 9.55 81.59 11.81 80.52 11.81 80.52 6.36 81.59 6.36 81.59 8.52 83.61 8.52 83.61 6.36"/>
</svg>